<?xml version="1.0"?>
<svg xmlns="http://www.w3.org/2000/svg" xmlns:xlink="http://www.w3.org/1999/xlink" xmlns:svgjs="http://svgjs.com/svgjs" version="1.1" width="512" height="512" x="0" y="0" viewBox="0 0 512.002 512.002" style="enable-background:new 0 0 512 512" xml:space="preserve" class=""><g><g xmlns="http://www.w3.org/2000/svg"><g><path d="m405.106 299.402c-4.193-23.817-2.306-37.454-.928-47.411.421-3.04.818-5.912.985-8.663.587-9.64-5.151-18.162-15.349-22.795-9.121-4.144-22.28-5.04-34.302.395v-128.925c0-22.056-17.388-40-38.761-40-6.828 0-13.214 1.812-18.761 5.001v-17.004c0-22.056-17.388-40-38.761-40-20.653 0-37.735 17.133-38.708 38.472-5.668-3.354-12.226-5.283-19.215-5.283-21.091 0-38.479 17.887-38.76 39.872l-.496 38.722c-5.253-2.958-11.267-4.633-17.67-4.633-20.291 0-36.549 16.701-37.012 38.022-.613 28.283-1.049 40.082-1.338 47.89-.465 12.571-.604 16.365-.604 60.689v84.374c0 18.672 5.058 36.94 9.949 54.607 3.759 13.579 7.345 26.556 8.675 39.299-5.242.312-9.4 4.649-9.4 9.97v60c0 5.523 4.478 10 10 10h221.227c5.522 0 10-4.477 10-10v-60c0-5.305-4.134-9.633-9.354-9.967 2.846-23.45 15.654-37.637 29.133-52.548 17.085-18.901 36.448-40.322 29.45-80.084zm-78.704 132.599h-46.142c-5.522 0-10 4.477-10 10s4.478 10 10 10h55.617v40h-201.226v-40h55.609c5.522 0 10-4.477 10-10s-4.478-10-10-10h-46.126c-1.351-15.2-5.469-30.107-9.483-44.605-4.743-17.133-9.224-33.316-9.224-49.271v-84.374c0-43.955.137-47.664.591-59.951.291-7.868.73-19.759 1.348-48.194.221-10.177 7.854-18.456 17.016-18.456 9.156 0 16.867 8.252 17.237 18.415l-1.053 82.199c-.071 5.522 4.349 10.057 9.871 10.127h.131c5.463 0 9.926-4.393 9.996-9.872l1.981-154.703c.142-11.099 8.559-20.128 18.762-20.128 10.341 0 18.755 8.967 18.76 19.99l-1.831 150.952c-.067 5.522 4.355 10.053 9.878 10.121h.124c5.466 0 9.93-4.398 9.996-9.879l2.234-184.252c.136-11.094 8.553-20.12 18.763-20.12 10.345 0 18.761 8.972 18.761 20v51.876l-2.874 132.159c-.12 5.521 4.259 10.095 9.78 10.215.074.002.148.002.222.002 5.422 0 9.875-4.335 9.994-9.783l2.876-132.249c.242-11.147 8.659-20.217 18.763-20.217 10.345 0 18.761 8.972 18.761 20v146.548c-9.985 14.542-11.458 30.807-11.528 48.628-3.657 2.179-13 3.397-20.104 4.323-29.403 3.833-78.617 10.249-78.617 90.498 0 5.523 4.478 10 10 10s10-4.477 10-10c0-28.379 6.546-47.271 20.013-57.755 11.633-9.057 27.336-11.104 41.19-12.91 15.186-1.979 29.529-3.85 36.182-15.372.887-1.536 1.349-3.279 1.34-5.052-.104-19.91.787-34.955 13.277-47.276 7.176-7.08 17.863-7.805 24.275-4.893 2.214 1.006 3.719 2.393 3.659 3.372-.121 1.985-.451 4.373-.834 7.137-1.472 10.636-3.695 26.708 1.042 53.62 5.304 30.134-7.888 44.729-24.59 63.205-14.826 16.4-31.448 34.8-34.417 65.925z" fill="#3b4252" data-original="#000000" style="" class=""/><path d="m235.264 432.001h-.008c-5.522 0-9.996 4.477-9.996 10s4.481 10 10.004 10 10-4.477 10-10-4.477-10-10-10z" fill="#3b4252" data-original="#000000" style="" class=""/></g></g></g></svg>
